<svg width="32" height="32" viewBox="0 0 32 32" fill="none" xmlns="http://www.w3.org/2000/svg">
<path d="M1 5.5C1 3.01472 3.01472 1 5.5 1C7.98528 1 10 3.01472 10 5.5V26.5C10 28.9853 7.98528 31 5.5 31C3.01472 31 1 28.9853 1 26.5V5.5Z" fill="#6B7280"/>
<path d="M22 5.5C22 3.01472 24.0147 1 26.5 1C28.9853 1 31 3.01472 31 5.5V26.5C31 28.9853 28.9853 31 26.5 31C24.0147 31 22 28.9853 22 26.5V5.5Z" fill="#6B7280"/>
<path d="M26.5 11.0072C28.9852 11.0032 31.0032 13.0147 31.0072 15.5C31.0111 17.9853 28.9996 20.0032 26.5144 20.0072L5.51439 20.0408C3.02911 20.0447 1.01117 18.0332 1.0072 15.548C1.00322 13.0627 3.01472 11.0448 5.49999 11.0408L26.5 11.0072Z" fill="#6B7280"/>
<path d="M10 5.5C10 7.98528 7.98528 10 5.5 10C3.01472 10 1 7.98528 1 5.5C1 3.01472 3.01472 1 5.5 1C7.98528 1 10 3.01472 10 5.5Z" fill="#374151"/>
<path d="M31 26.5C31 28.9853 28.9853 31 26.5 31C24.0147 31 22 28.9853 22 26.5C22 24.0147 24.0147 22 26.5 22C28.9853 22 31 24.0147 31 26.5Z" fill="#111827"/>
</svg>
